# xmcd
#
# Track frame offsets: 
#        150
#        28224
#        101010
#        152187
#        185187
#
# Disc length: 2954 seconds
#
# Revision: 5
# Processed by: cddbd v1.5.2PL0 Copyright (c) Steve Scherf et al.
# Submitted via: ExactAudioCopy v1.2
#
DISCID=420b8805
DTITLE=Miles Davis - Munich Concert [CD2]
DYEAR=1988
DGENRE=Jazz
TTITLE0=Don't Stop Me Now
TTITLE1=Carnival Time
TTITLE2=Tomaas
TTITLE3=New Blues
TTITLE4=Portia
EXTD=with Kenny Garrett, Bobby Irving on keyboards, Adam Holzman keybo
EXTD=ards, \nBen Rietveld bass, Marilyn Mazur, Joe McCreary on guitar 
EXTD=& Ricky Wellman \non drums. Recorded July 1988 @ Munich Philaharm
EXTD=onic Concert Hall.
EXTT0=
EXTT1=
EXTT2=
EXTT3=
EXTT4=
PLAYORDER=
